<svg width="48" height="48" viewBox="0 0 48 48" fill="none" xmlns="http://www.w3.org/2000/svg">
<path d="M43.0729 41C43.0729 42.1046 43.9683 43 45.0729 43C46.1774 43 47.0729 42.1046 47.0729 41L43.0729 41ZM43.0729 1L43.0729 41L47.0729 41L47.0729 1L43.0729 1Z" fill="white"/>
<path d="M45.0729 4L47.0729 4L47.0729 4.37114e-08L45.0729 0L45.0729 4ZM5.07285 -8.74228e-07C3.96828 -8.98369e-07 3.07285 0.89543 3.07285 2C3.07285 3.10457 3.96828 4 5.07285 4L5.07285 -8.74228e-07ZM45.0729 0L5.07285 -8.74228e-07L5.07285 4L45.0729 4L45.0729 0Z" fill="white"/>
<path d="M0.585787 43.78C-0.195261 44.561 -0.195261 45.8273 0.585787 46.6084C1.36684 47.3894 2.63317 47.3894 3.41421 46.6084L0.585787 43.78ZM43.0122 1.35356L0.585787 43.78L3.41421 46.6084L45.8406 4.18198L43.0122 1.35356Z" fill="white"/>
</svg>
